<?xml version="1.0" standalone="no"?><!DOCTYPE svg PUBLIC "-//W3C//DTD SVG 1.1//EN" "http://www.w3.org/Graphics/SVG/1.1/DTD/svg11.dtd"><svg t="1738841730697" class="icon" viewBox="0 0 1024 1024" version="1.1" xmlns="http://www.w3.org/2000/svg" p-id="3983" xmlns:xlink="http://www.w3.org/1999/xlink" width="200" height="200"><path d="M479.744 540.16C399.872 500.224 345.6 419.84 345.6 324.096c0-132.096 108.032-240.128 240.128-240.128s240.128 108.032 240.128 240.128c0 130.048-102.4 236.544-232.448 240.128h-2.048c-198.144 0-360.448 162.304-360.448 360.448 0 11.776-8.192 19.968-19.968 19.968s-19.968-8.192-19.968-19.968c0.512-182.272 122.88-336.384 288.768-384.512z m106.496-15.872c110.08 0 200.192-90.112 200.192-200.192S696.32 123.392 586.24 123.392 385.536 213.504 385.536 324.096s90.112 200.192 200.704 200.192z m-217.088-29.696c-3.584 0.512 4.096 0.512 0 0.512h-1.536c-169.984 0-308.736 138.752-308.736 308.736 0 10.24-6.656 17.408-17.408 17.408S24.064 814.08 24.064 803.84c0-156.16 104.448-288.256 246.784-329.216C202.752 440.32 156.16 371.712 156.16 289.28c0-113.152 92.672-205.824 205.824-205.824 17.92 0 34.816 2.048 51.2 6.656 0 0-28.672 25.088-30.72 29.184l-15.872-1.024c-94.208 0-176.128 76.8-176.128 171.008S262.144 455.68 339.968 460.8m475.136 119.296h2.048c12.288 0 22.016 13.312 22.016 30.208v304.64c0 16.896-9.728 30.208-22.016 30.208h-2.048c-12.288 0-22.016-13.312-22.016-30.208v-304.64c0-16.384 9.728-30.208 22.016-30.208z m183.296 181.76v2.048c0 12.288-13.312 22.528-30.208 22.528h-304.64c-16.896 0-30.208-10.24-30.208-22.528v-2.048c0-12.288 13.312-22.528 30.208-22.528h304.64c16.896-0.512 30.208 9.728 30.208 22.528z" p-id="3984" fill="#ffffff"></path></svg>