<?xml version="1.0" standalone="no"?><!DOCTYPE svg PUBLIC "-//W3C//DTD SVG 1.1//EN" "http://www.w3.org/Graphics/SVG/1.1/DTD/svg11.dtd"><svg t="1738841764499" class="icon" viewBox="0 0 1024 1024" version="1.1" xmlns="http://www.w3.org/2000/svg" p-id="5034" xmlns:xlink="http://www.w3.org/1999/xlink" width="200" height="200"><path d="M256.276833 85.44l511.765333 0.32c94.250667 0 170.56 76.501333 170.56 170.752v20.650667l-0.042666 39.210666v45.141334l-0.042667 40.853333v49.962667l-0.042667 36.138666v46.442667l-0.042666 40.256v1.365333c0 94.314667-76.586667 170.581333-170.901334 170.581334l-158.016-0.213334-237.546666 167.466667c-41.237333 29.077333-98.325333 1.28-100.885334-49.088l-5.994666-118.4-7.68-0.042667h-1.898667l-0.64-0.021333a170.666667 170.666667 0 0 1-169.472-170.730667l0.021333-59.861333v-9.386667l0.021334-60.8v-7.978666l0.021333-57.813334v-6.442666l0.021333-59.605334v-4.394666l0.021334-53.76c0-94.272 76.501333-170.602667 170.773333-170.602667z m32.704 64H256.234166c-29.44 0-54.613333 10.410667-75.477333 31.232-20.821333 20.821333-31.253333 45.930667-31.253333 75.370667v59.882666l-0.021334 53.674667v8.32l-0.042666 60.586667v70.186666l-0.042667 63.210667V576.106667c0 29.333333 10.325333 54.4 30.997333 75.2 20.629333 20.8 45.610667 31.296 74.922667 31.509333l70.613333 0.490667 9.088 178.730666v0.042667h0.064l254.186667-179.221333 45.333333 0.064h13.632l30.848 0.064h11.050667l5.269333 0.021333h9.941334l4.693333 0.021333h8.853333l4.138667 0.021334h11.328l3.413333 0.021333h11.797334l2.474666 0.021333 14.101334 0.021334h1.493333c29.461333 0 54.634667-10.410667 75.52-31.232 20.864-20.8 31.274667-45.909333 31.274667-75.349334l0.170666-320.021333v-0.021333l-0.149333-5.845334c-1.28-26.965333-11.648-50.176-31.082667-69.632-20.8-20.842667-45.909333-31.253333-75.328-31.253333h-11.690666l-22.997334-0.021333h-33.493333l-10.88-0.021334h-21.354667l-10.474666-0.021333h-20.565334l-10.069333-0.021333-29.418667-0.021334h-28.202666l-9.109334-0.021333h-26.581333l-8.597333-0.021333h-24.96l-8.021334-0.021334-30.848-0.021333H432.106166l-6.826666-0.021333-32.106667-0.021334h-6.016l-28.074667-0.021333h-5.205333l-28.373333-0.021333h-4.266667l-29.226667-0.021334h-3.029333z" fill="#ffffff" p-id="5035"></path><path d="M544.020833 597.290667a32 32 0 0 1-64 0v-320a32 32 0 0 1 64 0v320z" fill="#ffffff" p-id="5036"></path><path d="M672.020833 405.333333a32 32 0 0 1 0 64h-320a32 32 0 1 1 0-64h320z" fill="#ffffff" p-id="5037"></path></svg>