<?xml version="1.0" standalone="no"?><!DOCTYPE svg PUBLIC "-//W3C//DTD SVG 1.1//EN" "http://www.w3.org/Graphics/SVG/1.1/DTD/svg11.dtd"><svg t="1738842381086" class="icon" viewBox="0 0 1024 1024" version="1.1" xmlns="http://www.w3.org/2000/svg" p-id="6098" xmlns:xlink="http://www.w3.org/1999/xlink" width="200" height="200"><path d="M437.333333 981.333333h448a53.393333 53.393333 0 0 0 53.333334-53.333333V138.666667a53.393333 53.393333 0 0 0-53.333334-53.333334H437.333333a53.393333 53.393333 0 0 0-53.333333 53.333334v138.666666a21.333333 21.333333 0 0 0 42.666667 0V138.666667a10.666667 10.666667 0 0 1 10.666666-10.666667h448a10.666667 10.666667 0 0 1 10.666667 10.666667v789.333333a10.666667 10.666667 0 0 1-10.666667 10.666667H437.333333a10.666667 10.666667 0 0 1-10.666666-10.666667v-138.666667a21.333333 21.333333 0 0 0-42.666667 0v138.666667a53.393333 53.393333 0 0 0 53.333333 53.333333z m-160-256a21.333333 21.333333 0 0 0 15.086667-36.42L158.166667 554.666667H661.333333a21.333333 21.333333 0 0 0 0-42.666667H158.166667l134.253333-134.246667a21.333333 21.333333 0 0 0-30.173333-30.173333l-170.666667 170.666667a21.333333 21.333333 0 0 0 0 30.173333l170.666667 170.666667A21.266667 21.266667 0 0 0 277.333333 725.333333z" fill="#ffffff" p-id="6099"></path></svg>